<?xml version="1.0" encoding="UTF-8"?>
<svg id="Layer_1" data-name="Layer 1" xmlns="http://www.w3.org/2000/svg" viewBox="0 0 1371.11 452.08">
  <defs>
    <style>
      .cls-1 {
        fill: #fff;
      }

      .cls-2 {
        fill: #ffb545;
      }

      .cls-3 {
        fill: #00c46a;
      }

      .cls-4 {
        fill: #0077f5;
      }
    </style>
  </defs>
  <g>
    <path class="cls-4" d="m624.8,106.63l-96.1,96.1,96.1,192.2,96.1-192.2-96.1-96.1Zm-30.03,96.1l30.03-30.03,30.03,30.03-30.03,60.06-30.03-60.06Z"/>
    <path class="cls-2" d="m861.31,221.75l-134.56-19.1-95.93,192.28,211.39-38.62,19.1-134.56Zm-94.87,33.72l42.05,5.97-5.97,42.05-66.06,12.07,29.98-60.09Z"/>
    <path class="cls-3" d="m407.37,356.3l211.39,38.62-95.93-192.28-134.56,19.1,19.1,134.56Zm105.74-40.75l-66.06-12.07-5.97-42.05,42.05-5.97,29.98,60.09Z"/>
  </g>
  <g>
    <path class="cls-1" d="m949.51,321.35h-15.52l19.77-93.14h34.93c9.66,0,17.18,3.41,22.56,10.22,5.38,6.81,7.03,15.05,4.97,24.71-2.06,9.66-7.2,17.89-15.4,24.68-5.21,4.29-10.67,7.24-16.37,8.85l19.4,24.68h-19.4l-18.31-23.28,3.27-15.52h7.76c5.38,0,10.36-1.89,14.95-5.67,4.59-3.78,7.45-8.36,8.58-13.73,1.13-5.38.21-9.95-2.76-13.73-2.97-3.78-7.15-5.67-12.52-5.67h-19.4l-16.49,77.61Z"/>
    <path class="cls-1" d="m1022.82,290.3l13.16-62.09h15.52l-13.16,62.09c-1.13,5.38-.21,9.96,2.76,13.73,2.97,3.78,7.14,5.67,12.52,5.67s10.36-1.89,14.95-5.67c4.59-3.78,7.45-8.36,8.58-13.73l13.16-62.09h15.52l-13.16,62.09c-2.06,9.66-7.23,17.9-15.49,24.71-8.27,6.81-17.23,10.22-26.89,10.22s-17.17-3.41-22.53-10.22c-5.36-6.81-7-15.05-4.94-24.71Z"/>
    <path class="cls-1" d="m1133.9,262.71l-12.49,58.64h-15.52l21.46-100.9,40.2,66.4,12.43-58.64h15.52l-21.41,100.9-40.2-66.4Z"/>
    <path class="cls-1" d="m1226.86,262.71l-12.49,58.64h-15.52l21.46-100.9,40.2,66.4,12.43-58.64h15.52l-21.41,100.9-40.2-66.4Z"/>
    <path class="cls-1" d="m1314.17,277.14l-.49-2.37-20.19-46.57h17.46l14.37,33.05,28.32-33.05h17.46l-39.96,46.57-1.33,1.76-9.52,44.81h-15.52l9.4-44.2Z"/>
  </g>
</svg>