<?xml version="1.0" encoding="UTF-8"?>
<svg id="Layer_1" data-name="Layer 1" xmlns="http://www.w3.org/2000/svg" viewBox="0 0 1402.24 636.94">
  <defs>
    <style>
      .cls-1 {
        fill: #ffb545;
      }

      .cls-2 {
        fill: #00c46a;
      }

      .cls-3 {
        fill: #0077f5;
      }
    </style>
  </defs>
  <path class="cls-3" d="m879.71,0l-212.31,212.31,212.31,424.63,212.31-424.63L879.71,0Zm-66.35,212.31l66.35-66.35,66.35,66.35-66.35,132.7-66.35-132.7Z"/>
  <path class="cls-1" d="m1402.24,254.34l-297.28-42.21-211.95,424.81,467.02-85.33,42.21-297.28Zm-209.6,74.49l92.9,13.19-13.19,92.9-145.94,26.67,66.23-132.75Z"/>
  <path class="cls-2" d="m399.35,551.61l467.02,85.33-211.95-424.81-297.28,42.21,42.21,297.28Zm233.62-90.03l-145.94-26.67-13.19-92.9,92.9-13.19,66.23,132.75Z"/>
</svg>